<svg width="450" height="282" viewBox="0 0 450 282" fill="none" xmlns="http://www.w3.org/2000/svg">
<path d="M167.067 5.99998C141.6 13.0666 122.267 27.4666 109.467 48.5333C104.134 57.4667 97.3335 76.2667 97.3335 82.6667C97.2002 90.8 96.2668 91.2 86.0002 88.1333C55.2002 78.6667 24.0002 92 9.73351 120.933C5.06684 130.267 4.66684 132.133 4.26684 144.8C3.73351 156.133 4.13351 159.867 6.66684 167.2C14.4002 190.667 34.5335 207.467 58.5335 210.4L65.8668 211.333L68.2668 220.667C71.8668 234.267 78.0002 245.733 87.4668 255.733C97.6002 266.667 107.467 272.8 121.6 276.933C140.134 282.267 158.134 280.8 175.334 272.667C187.6 266.8 196.8 259.467 204 249.467C207.334 244.933 210.134 241.333 210.4 241.333C210.667 241.333 214.267 242.267 218.4 243.467C230.267 246.933 242 245.467 254.8 239.067L265.2 233.733L270.267 238.933C276.934 245.733 291.734 252.933 302.667 254.667C334.534 259.467 365.6 236.933 371.067 204.8C372.534 196.133 372.667 195.867 376 196.533C377.867 196.933 383.6 197.733 388.8 198.133C425.334 201.467 455.067 164.667 444.534 129.2C436.667 102.933 409.6 85.7333 383.6 90.6667C379.067 91.4667 374.534 92.2667 373.467 92.4C372.4 92.5333 370.667 90 369.334 86C364 70.2667 354.267 57.6 341.467 49.4667C325.334 39.2 300.534 37.0666 282.667 44.5333C277.867 46.5333 273.067 48.5333 271.867 48.8C270.4 49.3333 267.734 46.6667 263.2 40.6667C252.134 25.6 237.2 14.8 217.334 7.59998C207.467 4.13331 177.334 3.06665 167.067 5.99998Z" fill="#1A1E40"/>
</svg>
